<svg xmlns="http://www.w3.org/2000/svg" width="400" height="400" viewBox="0 0 124 124" fill="none">
<svg fill="none" viewBox="0 0 18 18" class="shopee-svg-icon Iz070x icon-coin-line"><path stroke="#FFA600" stroke-width="1.3" d="M17.35 9A8.35 8.35 0 11.65 9a8.35 8.35 0 0116.7 0z"></path><path fill="#FFA600" fill-rule="evenodd" stroke="#FFA600" stroke-width=".2" d="M6.86 4.723c-.683.576-.998 1.627-.75 2.464.215.725.85 1.258 1.522 1.608.37.193.77.355 1.177.463.1.027.2.051.3.08.098.03.196.062.294.096.06.021.121.044.182.067.017.006.107.041.04.014-.07-.028.071.03.087.037.286.124.56.27.82.44.114.076.045.024.151.111a2.942 2.942 0 01.322.303c.087.093.046.042.114.146.18.275.245.478.235.8-.01.328-.14.659-.325.867-.47.53-1.232.73-1.934.696a4.727 4.727 0 01-1.487-.307c-.45-.182-.852-.462-1.242-.737-.25-.176-.643-.04-.788.197-.17.279-.044.574.207.75.753.532 1.539.946 2.474 1.098.885.144 1.731.124 2.563-.224.78-.326 1.416-.966 1.607-1.772.198-.838-.023-1.644-.61-2.29-.683-.753-1.722-1.17-2.706-1.43a4.563 4.563 0 01-.543-.183c.122.048-.044-.02-.078-.035a4.77 4.77 0 01-.422-.212c-.594-.338-.955-.722-.872-1.369.105-.816.757-1.221 1.555-1.28.808-.06 1.648.135 2.297.554.614.398 1.19-.553.58-.947-1.33-.86-3.504-1.074-4.77-.005z" clip-rule="evenodd"></path></svg>
</svg>